<svg xmlns="http://www.w3.org/2000/svg" width="920" height="920" viewBox="0 0 243.41666 243.41667"><ellipse ry="111.12499" rx="121.33035" cy="119.13801" cx="121.70833" style="fill:#fc9;fill-opacity:1;stroke:none;stroke-width:.25801468;stroke-linecap:butt;stroke-linejoin:miter;stroke-miterlimit:4;stroke-dasharray:none;stroke-opacity:1;paint-order:markers stroke fill"
    /><path d="m18.898809 237.06655 3.85585-82.35713 69.395439 44.51783z" style="fill:#fc9;fill-opacity:1;stroke:none;stroke-width:.23997708;stroke-linecap:butt;stroke-linejoin:miter;stroke-miterlimit:4;stroke-dasharray:none;stroke-opacity:1;paint-order:markers stroke fill"
    /><text y="192.08757" x="22.330833" style="font-style:normal;font-weight:400;font-size:176.3888855px;line-height:1.25;font-family:sans-serif;letter-spacing:0;word-spacing:0;fill:#000;fill-opacity:1;stroke:none;stroke-width:.26458332"
     ><tspan style="font-style:normal;font-variant:normal;font-weight:700;font-stretch:normal;font-size:211.66667175px;font-family:sans-serif;-inkscape-font-specification:'sans-serif Bold';stroke-width:.26458332" y="192.08757" x="22.330833"
     >1</tspan></text><path style="stroke-width:7.93750238" d="m148.16667 132.29178a15.874999 15.875011.0 0 1 15.8751-15.87512h63.4998a15.874999 15.875011.0 0 1 15.8751 15.87512v95.25007a15.874999 15.875011.0 0 1-15.8751 15.87481h-63.4998a15.874999 15.875011.0 0 1-15.8751-15.87481zm15.8751 3.96869v15.87482a3.9687501 3.9687531.0 0 0 3.9687 3.969h55.5624a3.9687501 3.9687531.0 0 0 3.9687-3.969v-15.87482a3.9687501 3.9687531.0 0 0-3.9687-3.96869h-55.5624a3.9687501 3.9687531.0 0 0-3.9687 3.96869zm0 31.74993v7.9374a3.9687501 3.9687531.0 0 0 3.9687 3.96902h7.9374a3.9687501 3.9687531.0 0 0 3.9687-3.96902v-7.9374a3.9687501 3.9687531.0 0 0-3.9687-3.9687h-7.9374a3.9687501 3.9687531.0 0 0-3.9687 3.9687zm3.9687 19.84382a3.9687501 3.9687531.0 0 0-3.9687 3.9687v7.93741a3.9687501 3.9687531.0 0 0 3.9687 3.969h7.9374a3.9687501 3.9687531.0 0 0 3.9687-3.969v-7.93741a3.9687501 3.9687531.0 0 0-3.9687-3.9687zm-3.9687 27.78123v7.9374a3.9687501 3.9687531.0 0 0 3.9687 3.969h7.9374a3.9687501 3.9687531.0 0 0 3.9687-3.969v-7.9374a3.9687501 3.9687531.0 0 0-3.9687-3.96872h-7.9374a3.9687501 3.9687531.0 0 0-3.9687 3.96872zm27.7812-51.59375a3.9687501 3.9687531.0 0 0-3.9687 3.9687v7.9374a3.9687501 3.9687531.0 0 0 3.9687 3.96902h7.9374a3.9687501 3.9687531.0 0 0 3.9687-3.96902v-7.9374a3.9687501 3.9687531.0 0 0-3.9687-3.9687zm-3.9687 27.78122v7.93741a3.9687501 3.9687531.0 0 0 3.9687 3.969h7.9374a3.9687501 3.9687531.0 0 0 3.9687-3.969v-7.93741a3.9687501 3.9687531.0 0 0-3.9687-3.9687h-7.9374a3.9687501 3.9687531.0 0 0-3.9687 3.9687zm3.9687 19.84381a3.9687501 3.9687531.0 0 0-3.9687 3.96872v7.9374a3.9687501 3.9687531.0 0 0 3.9687 3.969h7.9374a3.9687501 3.9687531.0 0 0 3.9687-3.969v-7.9374a3.9687501 3.9687531.0 0 0-3.9687-3.96872zm19.8438-43.65633v7.9374a3.9687501 3.9687531.0 0 0 3.9687 3.96902h7.9374a3.9687501 3.9687531.0 0 0 3.9687-3.96902v-7.9374a3.9687501 3.9687531.0 0 0-3.9687-3.9687h-7.9374a3.9687501 3.9687531.0 0 0-3.9687 3.9687zm3.9687 19.84382a3.9687501 3.9687531.0 0 0-3.9687 3.9687v31.74993a3.9687501 3.9687531.0 0 0 3.9687 3.969h7.9374a3.9687501 3.9687531.0 0 0 3.9687-3.969v-31.74993a3.9687501 3.9687531.0 0 0-3.9687-3.9687z" /></svg>