<svg version="1.0" xmlns="http://www.w3.org/2000/svg" width="700pt" height="700pt" viewBox="0 0 700 700"><g transform="translate(0.000000,700.000000) scale(0.100000,-0.100000)" fill="#000" stroke="none"><path d="M1845 5811l-510-107-3-392c-1-216 1-392 6-392 7 0 949 193 1e3 205l22 5V37e2 2270h-505-505v-4e2-4e2h1455 1455V932c0-584 0-583 57-696 33-65 116-147 184-181 110-56 75-55 1129-55 621 0 991 4 1019 11 130 30 247 127 308 255l38 79 3 1450c2 1011-1 1466-8 1502-37 179-198 326-385 353-94 13-1856 13-1950 0-176-26-323-152-376-321-18-56-19-98-19-560v-499h-405-405v1825 1825l-547-1-548-1-510-107zm4657-2650 33-29 3-264c4-288 0-310-55-339-39-21-1668-21-1706 0-54 29-58 56-55 342l3 261 33 29 32 29h840 840l32-29zm-1392-896c54-28 62-59 58-226-3-147-3-149-31-176-27-28-29-28-176-31-229-5-241 6-241 223 0 213 11 224 223 225 104 0 145-4 167-15zm704-14c38-36 49-90 44-226-6-185-18-195-233-195h-147l-34 34-34 34v155c0 142 2 156 21 181 12 15 31 32 43 37 11 4 87 7 168 6 140-2 148-3 172-26zm666 14c52-27 60-58 60-221v-146l-34-34-34-34h-146c-225 0-236 10-236 225 0 213 11 224 223 225 104 0 145-4 167-15zm11-688c14-9 31-29 37-43 9-18 12-166 12-515V528l-34-34-34-34h-156-156l-32 29-33 29v506 506l27 27c34 33 84 42 233 39 86-1 116-5 136-19zm-1355-21 34-34v-147c0-215-10-227-195-233-136-5-190 6-226 44-23 25-24 30-24 186v160l33 29 32 29h156 156l34-34zm677 14c36-29 47-77 46-205-1-193-22-218-190-223-146-5-195 3-231 38l-28 28v162 162l29 29 29 29h160c145 0 162-2 185-20zm-695-680c18-11 37-32 42-46 6-14 10-91 10-171V528l-35-35-34-34-160 3c-160 3-161 3-188 31-28 27-28 29-31 173-5 232 6 244 223 244 122 0 144-3 173-20zm683 4c47-24 59-66 59-209 0-212-14-225-230-225-218 0-225 8-225 229 0 213 7 220 223 221 111 0 150-4 173-16z"/></g></svg>