<?xml version="1.0" standalone="no"?>
<!DOCTYPE svg PUBLIC "-//W3C//DTD SVG 20010904//EN"
 "http://www.w3.org/TR/2001/REC-SVG-20010904/DTD/svg10.dtd">
<svg version="1.0" xmlns="http://www.w3.org/2000/svg"
 width="700.000000pt" height="700.000000pt" viewBox="0 0 700.000000 700.000000"
 preserveAspectRatio="xMidYMid meet">
<metadata>
Created by potrace 1.14, written by Peter Selinger 2001-2017
</metadata>
<g transform="translate(0.000000,700.000000) scale(0.100000,-0.100000)"
fill="#000000" stroke="none">
<path d="M1845 5811 l-510 -107 -3 -392 c-1 -216 1 -392 6 -392 7 0 949 193
1000 205 l22 5 0 -1430 0 -1430 -505 0 -505 0 0 -400 0 -400 1455 0 1455 0 0
-538 c0 -584 0 -583 57 -696 33 -65 116 -147 184 -181 110 -56 75 -55 1129
-55 621 0 991 4 1019 11 130 30 247 127 308 255 l38 79 3 1450 c2 1011 -1
1466 -8 1502 -37 179 -198 326 -385 353 -94 13 -1856 13 -1950 0 -176 -26
-323 -152 -376 -321 -18 -56 -19 -98 -19 -560 l0 -499 -405 0 -405 0 0 1825 0
1825 -547 -1 -548 -1 -510 -107z m4657 -2650 l33 -29 3 -264 c4 -288 0 -310
-55 -339 -39 -21 -1668 -21 -1706 0 -54 29 -58 56 -55 342 l3 261 33 29 32 29
840 0 840 0 32 -29z m-1392 -896 c54 -28 62 -59 58 -226 -3 -147 -3 -149 -31
-176 -27 -28 -29 -28 -176 -31 -229 -5 -241 6 -241 223 0 213 11 224 223 225
104 0 145 -4 167 -15z m704 -14 c38 -36 49 -90 44 -226 -6 -185 -18 -195 -233
-195 l-147 0 -34 34 -34 34 0 155 c0 142 2 156 21 181 12 15 31 32 43 37 11 4
87 7 168 6 140 -2 148 -3 172 -26z m666 14 c52 -27 60 -58 60 -221 l0 -146
-34 -34 -34 -34 -146 0 c-225 0 -236 10 -236 225 0 213 11 224 223 225 104 0
145 -4 167 -15z m11 -688 c14 -9 31 -29 37 -43 9 -18 12 -166 12 -515 l0 -491
-34 -34 -34 -34 -156 0 -156 0 -32 29 -33 29 0 506 0 506 27 27 c34 33 84 42
233 39 86 -1 116 -5 136 -19z m-1355 -21 l34 -34 0 -147 c0 -215 -10 -227
-195 -233 -136 -5 -190 6 -226 44 -23 25 -24 30 -24 186 l0 160 33 29 32 29
156 0 156 0 34 -34z m677 14 c36 -29 47 -77 46 -205 -1 -193 -22 -218 -190
-223 -146 -5 -195 3 -231 38 l-28 28 0 162 0 162 29 29 29 29 160 0 c145 0
162 -2 185 -20z m-695 -680 c18 -11 37 -32 42 -46 6 -14 10 -91 10 -171 l0
-145 -35 -35 -34 -34 -160 3 c-160 3 -161 3 -188 31 -28 27 -28 29 -31 173 -5
232 6 244 223 244 122 0 144 -3 173 -20z m683 4 c47 -24 59 -66 59 -209 0
-212 -14 -225 -230 -225 -218 0 -225 8 -225 229 0 213 7 220 223 221 111 0
150 -4 173 -16z"/>
</g>
</svg>
